# xmcd CD database file
#
# Track frame offsets:
#	150
#	22459
#	48181
#	77356
#	117482
#	150907
#	172285
#	200383
#	222807
#	236104
#	261655
#
# Disc length: 3802 seconds
#
# Revision: 0
# Processed by: cddbd v1.5.1PL0 Copyright (c) Steve Scherf et al.
# Submitted via: CDex 1.51
#
DISCID=9b0ed80b
DTITLE=Karsh Kale - Liberation
DYEAR=2003
DGENRE=Techno-Industrial
TTITLE0=Liberation
TTITLE1=Instinct
TTITLE2=Analog Mood Swings
TTITLE3=Milan
TTITLE4=Break of Dawn
TTITLE5=Dirty Fellow
TTITLE6=Letting Go
TTITLE7=GK_
TTITLE8=Cinematic Reprise
TTITLE9=Epic
TTITLE10=Letting Go (Curious City Mix)
EXTD=YEAR: 2003
EXTT0=
EXTT1=
EXTT2=
EXTT3=
EXTT4=
EXTT5=
EXTT6=
EXTT7=
EXTT8=
EXTT9=
EXTT10=
PLAYORDER=
